<?xml version="1.0" encoding="UTF-8" standalone="no"?>
<!-- Created with Inkscape (http://www.inkscape.org/) -->

<svg
   width="32"
   height="32"
   viewBox="0 0 32 32"
   version="1.1"
   id="svg5"
   inkscape:version="1.2.2 (b0a8486541, 2022-12-01)"
   sodipodi:docname="Profil_Icon.svg"
   xmlns:inkscape="http://www.inkscape.org/namespaces/inkscape"
   xmlns:sodipodi="http://sodipodi.sourceforge.net/DTD/sodipodi-0.dtd"
   xmlns="http://www.w3.org/2000/svg"
   xmlns:svg="http://www.w3.org/2000/svg">
  <sodipodi:namedview
     id="namedview7"
     pagecolor="#505050"
     bordercolor="#eeeeee"
     borderopacity="1"
     inkscape:showpageshadow="0"
     inkscape:pageopacity="0"
     inkscape:pagecheckerboard="0"
     inkscape:deskcolor="#505050"
     inkscape:document-units="px"
     showgrid="false"
     inkscape:zoom="31.28125"
     inkscape:cx="16"
     inkscape:cy="15.984016"
     inkscape:window-width="2560"
     inkscape:window-height="1300"
     inkscape:window-x="1920"
     inkscape:window-y="32"
     inkscape:window-maximized="1"
     inkscape:current-layer="layer1" />
  <defs
     id="defs2">
    <clipPath
       clipPathUnits="userSpaceOnUse"
       id="clipPath6603">
      <path
         id="path6605"
         style="fill:#ff0000;fill-opacity:1;fill-rule:nonzero;stroke:none;stroke-width:1"
         d="M 4.7568827,5.2124817 V 6.0263108 C 4.8125023,5.9599436 4.8648056,5.890845 4.9227139,5.826423 5.1197879,5.6150937 5.3246718,5.4115445 5.5337908,5.2124817 Z m 21.1877833,0 c 0.133421,0.1250054 0.266756,0.2504543 0.39754,0.3783592 0.244541,0.2407773 0.492037,0.4796955 0.715574,0.7424405 0.109354,0.1271285 0.216685,0.25524 0.322575,0.3854979 V 5.2124817 Z m -8.007607,2.7199025 c -0.568899,6.749e-4 -1.139544,0.023228 -1.706016,0.080907 -0.419516,0.046909 -0.837136,0.102607 -1.253957,0.1713326 -0.427275,0.068249 -0.855336,0.140944 -1.276674,0.2427209 -0.32126,0.081552 -0.640332,0.1740435 -0.942739,0.3164892 -0.282843,0.1341808 -0.556797,0.2836802 -0.835971,0.4259522 -0.276897,0.1421892 -0.556247,0.2804552 -0.835972,0.4164319 -0.243813,0.1175478 -0.48837,0.2327734 -0.724659,0.366462 -0.222389,0.127962 -0.4451487,0.259652 -0.6565102,0.406914 -0.125273,0.08764 -0.2503715,0.174181 -0.3657373,0.276035 -0.1094119,0.101197 -0.2107863,0.210739 -0.3066746,0.326008 -0.1100376,0.134601 -0.2042537,0.28404 -0.302131,0.428331 -0.090773,0.139219 -0.1788705,0.277722 -0.2703276,0.416433 -0.09774,0.149161 -0.183173,0.30794 -0.2703277,0.464025 -0.065299,0.121593 -0.1183354,0.247984 -0.1658313,0.378359 -0.036722,0.09892 -0.069748,0.198785 -0.093138,0.302212 -0.024637,0.09501 -0.044955,0.192561 -0.06815,0.287933 -0.020176,0.109811 -0.040184,0.219593 -0.052248,0.330766 -0.011235,0.0916 -0.013122,0.181939 -0.022716,0.273657 -2.325e-4,0.0022 -0.00179,-0.0027 -0.00227,-0.0048 -0.094912,-0.42383 -0.2443445,-0.561604 -0.4179856,-0.544933 0.00438,0.218907 0.015129,0.438495 0.052248,0.654394 0.061676,0.358722 -0.021169,0.611704 -0.1635596,0.754339 0.1224405,0.01817 0.1488977,0.05712 -0.1044967,0.214167 0.039249,0.02164 0.073175,0.04388 0.099953,0.07138 0.1331375,0.009 0.2685115,0.01502 0.402084,0.01428 0.6329082,-0.0035 0.6329078,0.634136 0,0.637737 -0.1708116,9.74e-4 -0.3430872,-0.0084 -0.5133954,-0.02142 -0.022242,0.0013 -0.044109,0.0027 -0.06815,0.0024 -0.049231,-7.2e-4 -0.06047,-0.0022 -0.074965,-0.0024 -0.057416,0.114745 -0.2064159,0.207025 -0.4475173,0.207025 H 6.5265067 6.376577 6.1857575 c -0.075582,-10e-7 -0.1515855,3e-6 -0.2271661,0 -0.090391,-3e-6 -0.1799381,2.5e-5 -0.2703277,0 -0.082784,-2.8e-5 -0.1671001,1.64e-4 -0.2498827,0 -0.099227,-2.99e-4 -0.1983651,7.87e-4 -0.2975876,0 -0.032558,-2.76e-4 -0.065125,-0.0018 -0.097681,-0.0024 -0.095727,0.0054 -0.1902115,0.01245 -0.2862294,0.01666 V 26.947846 H 27.380355 V 15.86121 c -0.148895,0.003 -0.298666,0.0055 -0.447516,0.0072 -0.0071,5.28e-4 -0.01338,-5.25e-4 -0.02045,0 -0.06638,0.0049 -0.133296,0.01036 -0.199905,0.01428 -0.135058,0.0055 -0.271506,0.0029 -0.406628,0.0024 -0.0033,-4.3e-5 -0.0058,5e-5 -0.0091,0 -0.113296,0.02338 -0.227861,0.04365 -0.340749,0.06901 -0.241886,0.05433 -0.405081,-0.0079 -0.483864,-0.111846 -0.08885,-0.0076 -0.177374,-0.01646 -0.265784,-0.02617 -0.195595,-0.02158 -0.391899,-0.04523 -0.58836,-0.0571 -0.225173,-0.01365 -0.361627,-0.10132 -0.417987,-0.209407 -0.473894,-0.132207 -0.456346,-0.629433 0.07043,-0.616321 0.01847,4.59e-4 0.03709,0.0029 0.05679,0.0048 0.31376,0.02795 0.628983,0.05981 0.94274,0.08805 0.01105,0.0011 0.02078,8.56e-4 0.0318,0.0024 C 24.89149,14.714457 24.911212,14.306996 25.183645,14.13377 25.063664,13.86929 24.932619,13.608961 24.795191,13.353254 24.6251,13.034229 24.452962,12.716375 24.284095,12.396656 24.104208,12.06215 23.91723,11.732469 23.734353,11.399595 23.457409,10.889627 23.172793,10.382371 22.880209,9.8814004 22.476579,9.6224981 22.067387,9.3736801 21.644425,9.1508584 21.007273,8.812537 20.363624,8.4785738 19.686239,8.2369752 19.437067,8.1595203 19.324158,8.1190517 19.072891,8.0608835 18.7001,7.9745813 18.31841,7.936819 17.937059,7.9323842 Z" />
    </clipPath>
  </defs>
  <g
     inkscape:label="Ebene 1"
     inkscape:groupmode="layer"
     id="layer1">
    <circle
       style="fill:none;fill-opacity:0;stroke:#ffffff;stroke-width:1;stroke-dasharray:none"
       id="path788"
       cx="16.069389"
       cy="15.921249"
       r="14.067485" />
    <ellipse
       style="fill:none;fill-opacity:0;stroke:#ffffff;stroke-width:0.999677;stroke-dasharray:none"
       id="path794"
       cx="16.068304"
       cy="16.079538"
       rx="10.812204"
       ry="10.367682"
       clip-path="url(#clipPath6603)"
       transform="matrix(0.85977834,0,0,0.82077278,2.0585728,2.9346275)" />
  </g>
</svg>
