<?xml version="1.0" encoding="UTF-8" standalone="no"?>
<!-- Created with Inkscape (http://www.inkscape.org/) -->

<svg
   width="32"
   height="32"
   viewBox="0 0 32 32"
   version="1.1"
   id="svg5"
   inkscape:version="1.2.2 (b0a8486541, 2022-12-01)"
   sodipodi:docname="Qr-Code-Icon.svg"
   xmlns:inkscape="http://www.inkscape.org/namespaces/inkscape"
   xmlns:sodipodi="http://sodipodi.sourceforge.net/DTD/sodipodi-0.dtd"
   xmlns="http://www.w3.org/2000/svg"
   xmlns:svg="http://www.w3.org/2000/svg">
  <sodipodi:namedview
     id="namedview7"
     pagecolor="#505050"
     bordercolor="#eeeeee"
     borderopacity="1"
     inkscape:showpageshadow="0"
     inkscape:pageopacity="0"
     inkscape:pagecheckerboard="0"
     inkscape:deskcolor="#505050"
     inkscape:document-units="px"
     showgrid="false"
     inkscape:zoom="31.28125"
     inkscape:cx="8.8711289"
     inkscape:cy="16.015984"
     inkscape:window-width="2560"
     inkscape:window-height="1300"
     inkscape:window-x="1920"
     inkscape:window-y="32"
     inkscape:window-maximized="1"
     inkscape:current-layer="layer1" />
  <defs
     id="defs2">
    <clipPath
       clipPathUnits="userSpaceOnUse"
       id="clipPath11830">
      <path
         id="path11832"
         style="fill:#ff0000;fill-opacity:1;fill-rule:nonzero;stroke:none"
         d="m 2.1953125,2.1601562 v 9.8749998 h 0.546875 0.6523437 c 0.096581,0.0018 0.1930584,0.0071 0.2890626,0.01172 0.068969,-5.73e-4 0.1378625,-0.0019 0.2070312,-0.002 0.057234,-5.1e-5 0.1001866,0.01216 0.1367188,0.0293 0.014664,0.0049 0.026938,0.01102 0.039062,0.01758 l 0.00195,0.002 c 0.1547302,0.08606 0.099397,0.292693 -0.15625,0.283203 -0.064516,-0.0024 -0.031998,-0.0011 -0.099609,-0.0039 -0.04623,-0.0022 -0.092465,-0.0053 -0.1386719,-0.0078 -0.026686,-10e-7 -0.053351,-4.6e-5 -0.080078,0 -0.2023671,4.14e-4 -0.404967,0.0026 -0.6074219,0.0039 0.00495,0.0081 0.00755,0.01996 0.011719,0.0293 0.1240567,0.05926 0.1318325,0.189842 0.027344,0.253906 -9.144e-4,0.06898 -0.00246,0.138205 -0.00586,0.207031 -0.00533,0.106064 -0.014258,0.212557 -0.023437,0.318359 -0.010556,0.142373 -0.011708,0.285112 -0.017578,0.427735 -0.00686,0.154105 -0.016332,0.30665 -0.00781,0.460937 0.00467,0.158949 0.00972,0.317956 0.021484,0.476563 0.00699,0.132072 0.0057,0.264348 0.011719,0.396484 0.00638,0.169858 0.016514,0.339861 0.021484,0.509766 -5.5e-4,0.191871 -0.00137,0.384316 -0.00391,0.576172 -0.00343,0.238889 -0.00678,0.478168 -0.019531,0.716797 -0.01426,0.248142 -0.036325,0.495657 -0.068359,0.742187 0.060321,0.03047 0.1054998,0.111351 0.091797,0.238281 -0.01139,0.105464 -4.778e-4,0.210525 -0.00391,0.316406 v 0.28711 0.433594 0.53125 h 0.00781 c 0.1868141,0 0.2622645,0.111666 0.2285156,0.203125 0.1068754,-0.0042 0.2137689,-0.0082 0.3203125,-0.01172 0.1124106,-0.0037 0.2234769,-0.0065 0.3359375,-0.0078 h 0.050781 c 0.316443,-0.0027 0.3184815,0.317613 0.00195,0.320313 h -0.048828 c -0.1101375,0.0013 -0.2199896,0.0042 -0.3300782,0.0078 -0.1976503,0.0066 -0.3960593,0.01423 -0.59375,0.01953 -0.2664456,0.0051 -0.5323853,0.0032 -0.7988281,0.0039 v 9.966797 h 9.6269537 c -8.03e-4,-0.04932 -0.0013,-0.09908 -0.002,-0.148438 0.0029,-0.187904 0.01108,-0.376648 0.01758,-0.564453 0.0035,-0.119092 0.0059,-0.236699 0.01563,-0.355469 0.01209,-0.147838 0.08889,-0.22148 0.164062,-0.224609 0.08519,-0.0035 0.168125,0.08245 0.154297,0.25 -0.0094,0.113717 -0.01201,0.227768 -0.01563,0.341797 -0.0042,0.122287 -0.0079,0.244756 -0.01172,0.367187 0.01666,-0.003 0.03361,-0.005 0.05274,-0.0059 0.117396,-0.0054 0.236033,-0.0089 0.353515,-0.01172 0.08798,3e-4 0.175812,0.0059 0.263672,0.0098 0.03884,9.64e-4 0.07697,0.0052 0.115235,0.0078 0.03326,-0.04994 0.103789,-0.08871 0.21289,-0.08984 0.06259,-7e-4 0.12495,-0.0015 0.1875,-0.0039 0.08001,-0.0034 0.160501,-0.0082 0.240234,-0.01563 0.103436,-0.0091 0.206632,-0.01647 0.310547,-0.01367 0.111576,-5e-4 0.224391,10e-4 0.335938,-0.002 0.109367,-0.0033 0.217056,-0.0094 0.326172,-0.01758 0.133956,-0.01025 0.268163,-0.02425 0.402343,-0.03125 0.112361,-0.0087 0.225113,-0.01502 0.337891,-0.01172 0.08909,-8.9e-5 0.178488,5.69e-4 0.267578,0 0.06532,-6e-4 0.130043,-0.0014 0.195313,-0.0039 0.07067,-0.003 0.140617,-0.0078 0.210937,-0.01563 0.04426,-0.0043 0.0885,-0.0095 0.132813,-0.01172 0.04431,-0.0022 0.09025,-0.0015 0.134765,0 h 0.236329 c 0.07067,0 0.14221,-1.3e-5 0.21289,0 0.05539,7e-6 0.110626,-7e-5 0.166016,0 0.07196,9.9e-5 0.142884,-4e-4 0.214844,0 0.105494,5.93e-4 0.210923,0.0018 0.316406,0.0039 0.134038,0.0027 0.268627,0.0053 0.402344,0.01563 0.05822,0.0059 0.115088,0.0125 0.173828,0.0098 0.06412,9e-4 0.129309,0.0026 0.193359,0.0059 0.08086,0.0045 0.161774,0.0099 0.242187,0.01953 0.10014,0.01054 0.200224,0.0097 0.300782,0.01367 0.107903,0.0043 0.216896,0.009 0.324218,0.02148 0.06045,0.0064 0.120971,8.42e-4 0.181641,0.0039 0.08285,0.0013 0.165297,0.0016 0.248047,0.0059 0.101324,0.0053 0.203707,0.01344 0.304688,0.02344 0.01411,0.0014 0.02634,0.0053 0.03906,0.0078 0.0038,-0.124327 0.007,-0.248653 0.01172,-0.373047 l 0.0059,-0.15625 c 0.0058,-0.148233 0.07936,-0.224109 0.154297,-0.230469 0.08493,-0.0072 0.170599,0.07419 0.164063,0.242188 l -0.0059,0.15625 c -0.01,0.260338 -0.02427,0.521013 -0.02539,0.78125 h 9.742187 v -10.03125 h -0.255859 -0.433594 c -0.306577,0 -0.316638,-0.299609 -0.0293,-0.31836 0.0093,-6.04e-4 0.01941,0 0.0293,0 h 0.21289 c -0.03124,-0.04263 -0.03464,-0.09284 -0.01367,-0.134765 -0.241776,-0.04141 -0.221527,-0.311614 0.06836,-0.314453 0.0065,-6.3e-5 0.01302,4.5e-5 0.01953,0 0.0074,-0.02877 0.0196,-0.05603 0.0293,-0.08398 -0.01111,-0.03017 -0.01954,-0.06371 -0.02148,-0.105468 -0.0024,-0.05301 -0.0043,-0.107197 -0.0078,-0.160157 -0.0088,-0.131426 -0.0231,-0.262963 -0.0293,-0.394531 -0.0089,-0.178629 -0.0206,-0.35652 -0.0293,-0.535156 -0.0051,-0.19647 -0.01216,-0.391898 -0.02734,-0.587891 -0.01444,-0.194852 -0.02195,-0.391468 -0.04102,-0.585937 -0.01449,-0.132562 -0.03073,-0.264146 -0.04687,-0.396485 -0.01359,-0.125304 -0.01779,-0.251176 -0.02539,-0.376953 -0.01016,-0.162831 -0.01638,-0.325113 -0.01758,-0.488281 -0.0046,-0.184491 -0.01161,-0.370377 0.002,-0.554688 0.01435,-0.226057 0.03741,-0.450102 0.05664,-0.675781 0.02633,-0.285425 0.05405,-0.571181 0.07031,-0.857422 0.01825,-0.284453 0.03239,-0.569335 0.05469,-0.853515 0.0081,-0.08737 0.01829,-0.174616 0.0293,-0.261719 -0.02231,-0.0081 -0.0441,-0.01738 -0.06641,-0.02539 -0.02378,-0.0082 -0.04653,-0.01719 -0.07031,-0.02539 -0.111767,-0.03871 -0.167975,-0.105173 -0.177734,-0.167969 -0.240348,-0.04558 -0.219217,-0.310547 0.07031,-0.310547 h 0.304688 0.345703 V 2.1601562 h -9.634766 c -5.28e-4,0.061199 -0.0015,0.1223822 -0.002,0.1835938 -0.0018,0.3514484 -0.0043,0.7036426 0.01563,1.0546875 0.0179,0.315958 -0.301892,0.3413154 -0.320312,0.025391 -0.01036,-0.1775081 -0.01403,-0.3554095 -0.01563,-0.5332031 -0.03509,0.00224 -0.06997,0.00275 -0.105469,0.00195 -0.09455,1.78e-5 -0.190606,-8e-5 -0.285156,0 -0.1042,1.027e-4 -0.208301,0.00146 -0.3125,0.00195 -0.120473,6.6e-4 -0.240876,0.00141 -0.361328,0.00391 -0.134454,0.00316 -0.268083,0.00757 -0.402344,0.015625 -0.156424,0.00843 -0.312046,0.013214 -0.46875,0.00977 -0.119961,-8.97e-5 -0.241369,5.622e-4 -0.361328,0 -0.140419,-7.5e-4 -0.279517,-0.00175 -0.419922,-0.00391 -0.205502,-0.00325 -0.411853,-0.00632 -0.617188,-0.015625 -0.145576,-0.00696 -0.29168,-0.015299 -0.4375,-0.011719 h -0.002 c -0.06599,0.00589 -0.131182,0.01285 -0.197265,0.021484 -0.116159,0.00801 -0.231942,0.020445 -0.347657,0.033203 -0.138329,0.010009 -0.277915,0.024588 -0.416015,0.037109 -0.139033,0.012952 -0.277079,0.033095 -0.416016,0.046875 -0.155811,0.01747 -0.310362,0.037428 -0.466797,0.048828 -0.147147,0.00791 -0.29402,0.013267 -0.441406,0.00781 -0.133144,-0.00232 -0.267565,-0.00553 -0.400391,-0.015625 -0.136574,-0.011328 -0.270762,-0.028174 -0.40625,-0.048828 -0.08692,-0.011653 -0.173965,-0.02475 -0.259765,-0.042969 -0.02462,-0.00343 -0.04987,-0.00675 -0.07422,-0.011719 -0.0492,0.038479 -0.09596,0.078321 -0.138672,0.125 -0.04366,0.047709 -0.08872,0.076695 -0.130859,0.091797 v 0.1484375 0.5390625 c 0,0.3164638 -0.320313,0.3164638 -0.320313,0 V 3.3339844 2.4550781 c 0.0013,-0.098543 0.0045,-0.1967989 0.0078,-0.2949219 z" />
    </clipPath>
    <clipPath
       clipPathUnits="userSpaceOnUse"
       id="clipPath26471">
      <path
         id="path26473"
         style="fill:#ff0000;fill-opacity:1;fill-rule:nonzero;stroke:none"
         d="m 2.1503906,2.1503906 v 9.8847654 h 0.5917969 0.6523437 c 0.096581,0.0018 0.1930584,0.0071 0.2890626,0.01172 0.068969,-5.73e-4 0.1378662,-0.0019 0.2070312,-0.002 0.057234,-5.1e-5 0.1001866,0.01216 0.1367188,0.0293 0.014664,0.0049 0.026938,0.01102 0.039062,0.01758 l 0.00195,0.002 c 0.1353824,0.0753 0.1094262,0.242974 -0.070313,0.277344 0.025284,0.0047 0.053551,0.0102 0.0625,0.01367 0.064407,0.025 0.1240789,0.0622 0.1855469,0.09375 0.00666,0.04967 0.01664,0.100576 0.027344,0.15039 0.1701648,0.05529 0.2611143,0.160471 0.2792969,0.269532 0.0052,-4.86e-4 0.010424,-0.0015 0.015625,-0.002 0.2674906,-0.02585 0.4249716,0.07507 0.4726562,0.203125 0.1003919,0.09234 0.1931328,0.19159 0.2441406,0.314453 0.027366,0.06592 -0.096854,0.103191 -0.1503906,0.150391 -0.034063,0.03004 -0.074164,0.05398 -0.1113281,0.08008 -0.019321,0.01357 -0.039205,0.02559 -0.058594,0.03906 0.00292,0.0114 0.00714,0.02159 0.00977,0.0332 0.015332,0.06782 0.014719,0.325842 0.015625,0.382812 -0.00829,0.187552 -0.00874,0.26513 -0.029297,0.419922 0.027217,0.0024 0.053513,0.0087 0.076172,0.02344 0.1092218,0.071 0.1708644,0.196192 0.2558594,0.294922 -0.010282,0.09757 -0.00726,0.197838 -0.03125,0.292968 -0.029812,0.118237 -0.1838126,0.391282 -0.2421876,0.488282 -0.1491926,0.247897 -0.3179359,0.482163 -0.484375,0.71875 0.013032,0.0011 0.026135,0.0028 0.039063,0.0059 0.093978,0.02213 0.1667636,0.105468 0.2285156,0.179688 0.044499,0.05348 0.060549,0.124626 0.080078,0.191406 0.017256,0.05901 0.022437,0.122494 0.029297,0.183594 0.024808,0.22101 0.014806,0.228618 0.00586,0.460937 -0.017097,0.08298 -0.027051,0.166717 -0.050781,0.248047 -0.014372,0.04926 -0.031849,0.10092 -0.052734,0.152344 0.046184,0.0078 0.092932,0.01259 0.1386719,0.02344 0.1016849,0.02411 0.2668288,-0.0051 0.3007812,0.09375 0.067665,0.196973 0.010336,0.425187 -0.054687,0.623047 -0.00211,0.0064 -0.00364,0.0097 -0.00781,0.01367 0.019501,0.0385 0.02933,0.08226 0.027344,0.132812 -0.00805,0.204858 -0.095857,0.293976 -0.2109375,0.328125 -0.030552,0.08642 -0.083172,0.204264 -0.1640625,0.38086 -0.028062,0.06127 -0.1359956,-0.0059 -0.203125,-0.01172 -0.066963,-0.0058 -0.1324408,-0.01574 -0.1992188,-0.02344 -0.01044,-0.0012 -0.028893,-0.0025 -0.041016,-0.0039 -0.00827,0.07164 -0.019366,0.14339 -0.023437,0.214844 -0.1065169,0.04076 -0.1473626,0.06348 -0.1796875,0.07617 0.019375,0.08749 -0.055161,0.186005 -0.2304687,0.1875 h -0.048828 c -0.1101338,0.0013 -0.2199933,0.0042 -0.3300782,0.0078 -0.1976429,0.0066 -0.3960667,0.01423 -0.59375,0.01953 -0.2762066,0.0053 -0.551878,0.0029 -0.828125,0.0039 H 2.150396 V 30.17576 h 9.683593 c -0.0074,-0.177125 -0.01145,-0.353924 -0.01367,-0.53125 0.0029,-0.187904 0.01108,-0.376648 0.01758,-0.564453 0.0035,-0.119092 0.0059,-0.236699 0.01563,-0.355469 0.01123,-0.137344 0.07868,-0.208502 0.148437,-0.220703 0.0096,-0.04607 0.01942,-0.09279 0.0293,-0.138672 0.04087,-0.189316 0.12689,-0.34595 0.314453,-0.43164 0.05513,-0.02519 0.114295,-0.03772 0.171875,-0.05664 0.02859,-0.0045 0.05723,-0.0088 0.08398,-0.01172 0.01607,-0.06233 0.04137,-0.141916 0.07031,-0.234375 -0.01776,-0.07449 -0.0068,-0.10245 0.03516,-0.111328 0.0016,-0.0051 0.0023,-0.0085 0.0039,-0.01367 0.01914,-0.05994 0.1253,-0.0198 0.1875,-0.0293 0.68001,-0.08512 1.359592,-0.163388 2.041015,-0.236328 0.784793,-0.07716 1.575541,-0.07493 2.363281,-0.07813 0.357126,10e-5 0.713195,4.47e-4 1.070313,-0.002 0.388891,-0.0026 0.540905,0.23709 0.453125,0.423828 0.110695,-0.0409 0.233057,-0.04056 0.349609,-0.06055 0.07632,0.07253 0.166126,0.13395 0.228516,0.21875 0.0235,0.03195 0.02753,0.07292 0.0332,0.113281 0.07607,-0.0074 0.154413,-0.0042 0.230469,-0.01172 0.053,0.04668 0.111753,0.08742 0.158203,0.140625 0.07562,0.0866 0.10874,0.308191 0.125,0.423828 0.0058,0.06126 0.0079,0.12234 0.0078,0.183594 0.0045,0.0088 0.0122,0.01616 0.01563,0.02539 0.07713,0.0073 0.14852,0.0847 0.142579,0.238281 l -0.0059,0.15625 c -0.0138,0.36013 -0.03442,0.719667 -0.01953,1.080078 0.002,0.0279 0.0049,0.05614 0.0078,0.08398 H 30.175781 V 19.761719 h -0.21289 -0.390625 -0.433594 c -0.05179,0 -0.09143,-0.01113 -0.125,-0.02539 -0.07747,0.0023 -0.154979,0.0048 -0.232422,0.0059 -0.08404,0.0024 -0.168033,-0.0034 -0.251953,0.002 -0.07613,0.0051 -0.03835,0.0044 -0.117188,0.0098 -0.177177,0.01221 -0.304219,-0.03072 -0.386718,-0.09766 -0.04007,-0.0043 -0.07946,-0.01094 -0.111329,-0.02539 -0.02083,-0.0094 -0.0401,-0.01915 -0.05859,-0.0293 -0.344512,-0.05456 -0.42087,-0.353121 -0.189453,-0.517578 0.0023,-0.008 0.0047,-0.01574 0.0078,-0.02344 0.02561,-0.06408 0.06142,-0.119761 0.103516,-0.169922 -0.03852,-0.08906 -0.04562,-0.175508 -0.0293,-0.257813 -0.177513,-0.0932 -0.260989,-0.218718 -0.279297,-0.443359 -0.0075,-0.0927 0.02598,-0.185264 0.03906,-0.277344 0.02506,-0.05098 0.04738,-0.103216 0.07227,-0.154297 -0.06322,-0.226614 0.0021,-0.313685 0.07813,-0.503906 0.03952,-0.06765 0.07632,-0.135562 0.119141,-0.201172 0.04065,-0.06229 0.0872,-0.13009 0.138672,-0.197265 2.71e-4,-0.112546 0.03697,-0.220163 0.08984,-0.322266 0.008,-0.02125 0.01516,-0.04321 0.02344,-0.06641 0.02614,-0.0469 0.05079,-0.09443 0.07813,-0.140625 -0.02104,-0.02953 -0.03951,-0.05996 -0.05664,-0.0918 -0.0026,-3.7e-5 -0.0052,1.19e-4 -0.0078,0 -0.392859,-0.01775 -0.549535,-0.332273 -0.521485,-0.677734 0.02075,-0.255602 0.09174,-0.35014 0.201172,-0.578125 0.06463,-0.08999 0.125123,-0.183812 0.195313,-0.269532 0.0064,-0.0078 0.01465,-0.01733 0.02148,-0.02539 -0.04683,-0.01493 -0.09064,-0.03094 -0.130859,-0.05274 -0.09174,-0.04978 -0.164164,-0.128779 -0.246094,-0.193359 -0.04344,-0.09465 -0.109239,-0.183283 -0.130859,-0.285156 -0.02071,-0.09745 -0.0115,-0.201098 0.0078,-0.298828 0.01897,-0.09599 0.05937,-0.187128 0.105469,-0.273438 0.04128,-0.07729 0.09229,-0.147181 0.146484,-0.214844 -0.01391,-0.01807 -0.02586,-0.03593 -0.03711,-0.05664 -0.01289,-0.02373 -0.0197,-0.04984 -0.02539,-0.07617 -0.06181,-0.0052 -0.123701,-0.01058 -0.185547,-0.01563 -0.183321,-0.03018 -0.525654,-0.07664 -0.615234,-0.273438 -0.121946,-0.267902 -0.05401,-0.414374 0.132813,-0.568359 0.05179,-0.0427 0.118794,-0.06553 0.177734,-0.09766 0.03381,-0.01254 0.06786,-0.02434 0.101562,-0.03711 -0.250671,-0.144312 -0.196085,-0.502588 0.263672,-0.578125 0.145578,-0.02392 0.291317,-0.0501 0.4375,-0.07031 0.107283,-0.01446 0.214197,-0.02525 0.322266,-0.03125 0.08086,-0.0099 0.162961,-0.01859 0.24414,-0.02539 0.07972,-0.0064 0.158342,-0.01002 0.238282,-0.01172 0.08095,-0.0013 0.16318,-0.0016 0.24414,-0.002 0.06501,-0.0032 0.12917,0.0046 0.19336,0.01367 0.02418,0.002 0.04861,0.007 0.07227,0.01172 h 0.226563 0.40039 0.292969 V 2.1503906 H 20.19336 c -5.6e-4,0.064453 -0.0015,0.1288959 -0.002,0.1933594 -0.0018,0.3514336 -0.0043,0.7036574 0.01563,1.0546875 0.01042,0.1839443 -0.09201,0.2661352 -0.183593,0.2421875 -0.0077,0.020919 -0.01492,0.041876 -0.02539,0.0625 -0.01718,0.028521 -0.03572,0.05533 -0.05469,0.082031 -3.74e-4,0.1672555 0.01319,0.3331129 0.02344,0.5 0.0065,0.151365 0.01741,0.3023084 0.03125,0.453125 6.23e-4,0.00534 0.0013,0.0059 0.002,0.011719 0.0042,0.036657 0.04629,0.09648 0.01172,0.109375 h -0.002 c 0.0188,0.1532389 0.02341,0.1427737 -0.253907,0.1015625 -0.338734,0.137607 -0.360752,0.1546619 -0.382812,-0.044922 -0.02552,-0.00489 -0.007,-0.055594 -0.0078,-0.085937 -1.8e-4,-0.00193 1.8e-4,-0.00393 0,-0.00586 -0.0022,-0.018908 -0.0022,-0.026089 -0.0039,-0.041016 -0.0068,-0.059783 -0.01244,-0.113885 -0.01758,-0.1640625 -0.0282,0.022368 -0.05905,0.044635 -0.103516,0.068359 -0.172366,0.09197 -0.370731,0.1178288 -0.548828,0.017578 -0.0585,-0.032927 -0.09871,-0.089685 -0.148437,-0.1347656 -0.01282,-0.023638 -0.02759,-0.04697 -0.04102,-0.070312 -0.05825,0.00156 -0.116456,-0.00709 -0.171875,-0.025391 -0.01426,0.00617 -0.02861,0.01123 -0.04492,0.017578 -0.232613,0.090533 -0.486808,0.061535 -0.666015,-0.125 -0.01181,-0.012294 -0.02211,-0.024794 -0.03125,-0.039063 -0.0705,0.041122 -0.14348,0.073422 -0.244141,0.083984 -0.02566,0.00269 -0.04983,0.00193 -0.07422,0.00195 -0.05413,0.052319 -0.110693,0.1012634 -0.169922,0.1484375 -0.178919,0.1203807 -0.271078,0.1990164 -0.478515,0.2714844 -0.322768,0.1127593 -0.647585,0.1226096 -0.88086,-0.1757813 -0.0582,-0.074451 -0.06919,-0.1756229 -0.103515,-0.2636719 -1.63e-4,-0.00848 -0.0016,-0.016908 -0.002,-0.025391 -0.108105,-0.024121 -0.194028,-0.072774 -0.273438,-0.15625 -0.197477,0.1485721 -0.397339,0.2922559 -0.621094,0.4003906 -0.08798,0.042519 -0.176344,0.090988 -0.271484,0.1132813 -0.106923,0.025051 -0.223874,0.061868 -0.328125,0.027344 -0.127676,-0.042282 -0.215147,-0.162812 -0.322266,-0.2441406 -0.0014,-0.010462 -0.0041,-0.020801 -0.0059,-0.03125 -0.01979,-0.00193 -0.03886,-0.00371 -0.06055,-0.00781 -0.138769,-0.026235 -0.250179,-0.090312 -0.332031,-0.1816406 -0.07321,0.00691 -0.148499,-0.00776 -0.232422,-0.056641 -0.03675,-0.021405 -0.06546,-0.053344 -0.0918,-0.087891 -0.03727,5.387e-4 -0.08275,0.00153 -0.134765,0.00195 -0.02197,0.1230395 -0.07405,0.2664041 -0.195313,0.2988281 -0.106345,0.028436 -0.224009,0.015775 -0.330078,-0.013672 -0.05093,-0.014138 -0.07686,-0.073028 -0.115235,-0.109375 -0.04517,-0.068563 -0.07887,-0.142072 -0.105468,-0.21875 -0.06972,-0.016373 -0.132813,-0.090789 -0.132813,-0.2304687 V 3.3339844 2.4550781 c 0.0014,-0.1018205 0.0043,-0.203304 0.0078,-0.3046875 z M 19.0625,4.1933594 c -0.0021,0.00237 -0.0038,0.00547 -0.0059,0.00781 0.0041,0.024076 0.0041,0.030916 0.02734,0.03125 -0.0101,-0.017925 -0.01647,-0.030018 -0.02148,-0.039063 z m -2.789062,0.15625 c 6.47e-4,0.00387 0.0014,0.00784 0.002,0.011719 0.01186,0.00368 0.02956,0.02084 0.03516,0.00977 0.004,-0.00785 0.0068,-0.015302 0.0078,-0.021484 -0.01507,9.126e-4 -0.02992,-7.23e-5 -0.04492,0 z m 13.783203,7.6035156 c -0.0034,0.0017 -2.58e-4,0.0079 0,0.01172 4.16e-4,0.002 0.0014,0.0039 0.002,0.0059 -1.89e-4,-0.0025 2.74e-4,-0.0053 0,-0.0078 -4e-4,-0.0036 0.0013,-0.01 -0.002,-0.0098 z m -2.708985,0.931641 c -0.02441,0.01343 -0.04926,0.02498 -0.06836,0.04492 -0.0166,0.01733 0.05575,-0.01082 0.06445,-0.0332 0.0015,-0.0038 0.0025,-0.0079 0.0039,-0.01172 z M 4.3046875,14.595703 c -0.036307,0.04687 -0.070229,0.0952 -0.1054687,0.142578 0.024254,0.0018 0.048988,0.0012 0.072266,0.0078 0.00217,-0.0079 0.00597,-0.0154 0.00781,-0.02344 0.00963,-0.04209 0.018148,-0.08477 0.025391,-0.126953 z m 0.6699219,0.546875 c -0.012613,4.32e-4 -0.057825,0.01293 -0.076172,0.01953 0.023882,0.0022 0.049453,1.53e-4 0.076172,-0.01563 0.0056,-0.0033 0.0042,-0.004 0,-0.0039 z m -1.3359375,4.259766 c -0.034335,0.03792 -0.071632,0.06922 -0.1152344,0.08203 0.018227,-6.69e-4 0.036498,-0.0013 0.054687,-0.002 0.043793,-0.0014 0.087311,-0.0028 0.1308594,-0.0039 -0.023589,-0.02562 -0.04637,-0.05089 -0.070312,-0.07617 z m 15.0019531,8.345703 c -0.01526,0.0066 -0.02992,0.01215 -0.04687,0.01758 0.0074,0.0049 0.01389,0.01039 0.02148,0.01563 0.0089,-0.01061 0.01595,-0.02226 0.02539,-0.0332 z m 1.142578,0.535156 c -0.0035,0.006 -0.0051,0.01312 -0.0078,0.01953 7.34e-4,0.0012 0.0012,0.0027 0.002,0.0039 0.0021,-0.0037 0.0036,-0.0083 0.0059,-0.01172 0.0023,-0.0035 0.0021,-0.01532 0,-0.01172 z" />
    </clipPath>
  </defs>
  <g
     inkscape:label="Ebene 1"
     inkscape:groupmode="layer"
     id="layer1">
    <path
       style="fill:#000000;fill-opacity:0"
       d="M 9.1730145,12.331748 C 16.729794,5.2183637 16.729794,5.2183637 16.729794,5.2183637"
       id="path2562" />
    <path
       id="rect4068"
       clip-path="url(#clipPath11830)"
       style="fill:#000000;fill-opacity:0;fill-rule:nonzero;stroke:none"
       d="M 2.1953125,2.1601562 V 29.792969 H 29.828125 V 2.1601562 H 17.091797 c -4.24e-4,0.083481 -0.08625,0.1640319 -0.25,0.1503907 -5.39e-4,2.424e-4 -0.0014,-2.393e-4 -0.002,0 -0.03846,0.016951 -0.08371,0.028998 -0.144532,0.025391 -0.143473,-0.00851 -0.286793,-0.017372 -0.429687,-0.033203 -0.185582,-0.021116 -0.369854,-0.049857 -0.554687,-0.076172 -0.01289,-0.00183 -0.02152,-0.00707 -0.0332,-0.00977 -0.08075,-0.00164 -0.161385,-9.227e-4 -0.242187,0.00195 -0.09197,0.00328 -0.157379,-0.021519 -0.197266,-0.058594 z" />
    <path
       id="rect4070"
       clip-path="url(#clipPath26471)"
       style="fill:none;fill-opacity:0;fill-rule:nonzero;stroke:#ffffff;stroke-opacity:1;stroke-width:2;stroke-dasharray:none"
       d="M 4.4921875,2.5 C 3.3889034,2.5 2.5,3.3889034 2.5,4.4921875 V 27.833984 c 0,1.103285 0.8889034,1.990235 1.9921875,1.990235 H 27.833984 c 1.103285,0 1.990235,-0.88695 1.990235,-1.990235 V 4.4921875 C 29.824219,3.3889034 28.937269,2.5 27.833984,2.5 Z" />
    <rect
       style="fill:none;fill-opacity:0;fill-rule:nonzero;stroke:#ffffff;stroke-width:1.32181;stroke-dasharray:none;stroke-opacity:1"
       id="rect4070-3"
       width="11.396513"
       height="11.325282"
       x="7.7416487"
       y="7.5329223"
       ry="1.9914914"
       rx="1.9914914" />
    <path
       style="fill:none;fill-opacity:0;fill-rule:nonzero;stroke:#ffffff;stroke-width:1.39201;stroke-dasharray:none;stroke-opacity:1"
       d="m 25.057002,6.8312035 -0.004,12.6625125"
       id="path7729" />
    <path
       style="fill:none;fill-opacity:0;fill-rule:nonzero;stroke:#ffffff;stroke-width:1.39277;stroke-dasharray:none;stroke-opacity:1"
       d="m 19.730611,24.574065 -12.606762,-0.004"
       id="path7729-6" />
  </g>
</svg>
